<?xml version="1.0" standalone="no"?>
<!DOCTYPE svg PUBLIC "-//W3C//DTD SVG 20010904//EN"
 "http://www.w3.org/TR/2001/REC-SVG-20010904/DTD/svg10.dtd">
<svg version="1.0" xmlns="http://www.w3.org/2000/svg"
 width="2000.000000pt" height="2000.000000pt" viewBox="0 0 2000.000000 2000.000000"
 preserveAspectRatio="xMidYMid meet">
<metadata>
Created by potrace 1.14, written by Peter Selinger 2001-2017
</metadata>
<g transform="translate(0.000000,2000.000000) scale(0.100000,-0.100000)"
fill="#000000" stroke="none">
<path d="M9911 19988 c-18 -5 -51 -21 -73 -35 -23 -13 -662 -647 -1422 -1406
l-1381 -1382 -1955 -1 c-1075 0 -1972 -4 -1993 -8 -120 -23 -223 -129 -244
-252 -4 -27 -8 -924 -7 -1993 l0 -1943 -1391 -1392 c-1117 -1117 -1395 -1401
-1415 -1441 -46 -95 -33 -230 29 -315 14 -19 644 -654 1401 -1410 l1375 -1375
1 -1965 c1 -1424 4 -1976 12 -2006 29 -104 130 -196 239 -218 42 -8 580 -11
2002 -11 l1944 1 1392 -1392 c875 -875 1405 -1397 1426 -1406 19 -9 45 -20 59
-25 46 -19 170 -9 225 17 40 20 322 296 1441 1415 l1391 1391 1949 -1 c1378 0
1964 3 1999 11 28 6 64 18 80 26 74 39 146 135 161 213 4 22 8 920 8 1995 l1
1955 1375 1375 c757 756 1387 1391 1401 1410 63 87 75 217 28 315 -19 41 -283
310 -1411 1438 -763 764 -1389 1391 -1390 1395 0 4 -2 889 -3 1967 -2 1415 -5
1971 -13 2000 -27 95 -122 190 -215 216 -31 9 -545 12 -2007 13 l-1965 1
-1390 1390 c-1134 1135 -1399 1395 -1440 1414 -55 26 -165 36 -224 19z"/>
</g>
</svg>
